# xmcd CD database file
#
# Track frame offsets:
#	150
#	24147
#	47962
#	66265
#	92297
#	93192
#	114348
#	129322
#	150972
#	168402
#
# Disc length: 2906 seconds
#
# Revision: 0
# Processed by: cddbd v1.4PL0 Copyright (c) Steve Scherf et al.
# Submitted via: CDex 1.50Beta6
#
DISCID=680b580a
DTITLE=T.K. Soul - One Woman Man
DYEAR=2003
DGENRE=Blues
TTITLE0=She's Bad
TTITLE1=All the Man You Need
TTITLE2=Short Skirts Tight Jeans
TTITLE3=Straight No Chaser
TTITLE4=Meet Me at the Spot
TTITLE5=Tonight We Make Love
TTITLE6=One Woman Man
TTITLE7=Missing You
TTITLE8=I'm in Love
TTITLE9=My Life
EXTD=YEAR: 2003
EXTT0=
EXTT1=
EXTT2=
EXTT3=
EXTT4=
EXTT5=
EXTT6=
EXTT7=
EXTT8=
EXTT9=
PLAYORDER=
